<?xml version="1.0" encoding="UTF-8"?>
<svg id="Capa_1" data-name="Capa 1" xmlns="http://www.w3.org/2000/svg" viewBox="0 0 841.89 595.28">
  <defs>
    <style>
      .cls-1 {
        fill: #e63947;
      }
    </style>
  </defs>
  <path class="cls-1" d="M187.57,264.47c-4.11-7.21-9.82-12.85-17.12-16.92-7.3-4.07-15.73-6.11-25.29-6.11s-17.99,2.04-25.29,6.11c-7.3,4.07-13.03,9.71-17.19,16.92-2.7,4.69-4.52,9.86-5.47,15.5,4.62,1.54,9.59,1.77,14.38,2.77.66-4.09,1.92-7.85,3.83-11.24,2.92-5.18,6.95-9.22,12.08-12.15,5.13-2.92,11.02-4.38,17.65-4.38s12.52,1.46,17.65,4.38c5.13,2.92,9.14,6.97,12.01,12.15,2.87,5.18,4.31,11.17,4.31,17.99s-1.44,12.81-4.31,17.99c-2.88,5.18-6.88,9.22-12.01,12.15-5.13,2.92-11.02,4.38-17.65,4.38-5.28,0-10.08-.94-14.4-2.79-.64.7-1.28,1.39-1.94,2.07-2.53,2.95-4.92,6-7.47,8.93,6.96,3.55,14.89,5.32,23.81,5.32,9.56,0,17.99-2.04,25.29-6.11,7.3-4.07,13.01-9.73,17.12-16.99,4.11-7.25,6.17-15.57,6.17-24.95s-2.06-17.81-6.17-25.02Z"/>
  <path class="cls-1" d="M391.05,238.84h41.46v13.14h-27.25v33.18h-14.2l41.46,13.14h-27.25v18.98h27.25v13.14h-41.46v-91.59Z"/>
  <path class="cls-1" d="M559.75,238.99h41.46v13.14h-27.25v33.18h-14.2l41.46,13.14h-27.25v32.12h-14.2v-91.59Z"/>
  <path class="cls-1" d="M609.79,238.99h14.2v91.59h-14.2v-91.59Z"/>
  <path class="cls-1" d="M372.97,247.33c-6.33-5.66-15.15-8.5-26.48-8.5h-26.02v13.01h25.49c7.08,0,12.5,1.62,16.26,4.84,3.76,3.23,5.64,7.94,5.64,14.14s-1.88,10.77-5.64,14c-3.76,3.23-9.18,4.84-16.26,4.84h-25.49v40.75h14.2v-27.74h11.81c11.33,0,20.15-2.81,26.48-8.43,6.33-5.62,9.49-13.43,9.49-23.43s-3.16-17.83-9.49-23.49Z"/>
  <path class="cls-1" d="M489.4,292.64c4.69-2.48,8.3-5.86,10.82-10.15,2.52-4.29,3.78-9.31,3.78-15.07,0-9.56-3.1-16.94-9.29-22.17-6.19-5.22-14.95-7.83-26.28-7.83h-27.34v27.76h14.2v-14.75h11.81c14.87,0,22.3,5.66,22.3,16.99s-7.43,16.86-22.3,16.86h-26.02v13.01h26.41c3.36,0,6.5-.22,9.42-.66l14.73,32.39h15.26l-17.52-36.37Z"/>
  <path class="cls-1" d="M680.9,294.21c4.69-2.48,8.3-5.86,10.82-10.15,2.52-4.29,3.78-9.31,3.78-15.07,0-9.56-3.1-16.94-9.29-22.17-6.19-5.22-14.95-7.83-26.28-7.83h-27.34v27.76h14.2v-14.75h11.81c14.87,0,22.3,5.66,22.3,16.99s-7.43,16.86-22.3,16.86h-26.02v13.01h26.41c3.36,0,6.5-.22,9.42-.66l14.73,32.39h15.26l-17.52-36.37Z"/>
  <g>
    <polygon class="cls-1" points="50.25 243.7 50.25 256.84 50.25 262.91 50.25 335.28 64.32 335.28 64.32 256.84 91.27 256.84 91.27 243.7 50.25 243.7"/>
    <rect class="cls-1" x="23.31" y="243.7" width="20.87" height="13.14"/>
  </g>
  <g>
    <polygon class="cls-1" points="226.63 239.98 226.63 253.12 226.63 259.19 226.63 331.57 240.7 331.57 240.7 253.12 267.65 253.12 267.65 239.98 226.63 239.98"/>
    <rect class="cls-1" x="199.69" y="239.98" width="20.87" height="13.14"/>
  </g>
  <g>
    <polygon class="cls-1" points="754.66 237.27 753.33 237.27 707 330.58 722.53 330.58 731.16 313.19 731.43 313.19 737.42 300.31 737.4 300.31 741.83 290.85 741.83 290.84 741.83 290.84 753.86 265.14 766.07 290.82 766.07 290.82 776.78 313.19 776.82 313.19 785.05 330.58 800.98 330.58 754.66 237.27"/>
    <polygon class="cls-1" points="752.73 298.85 757.34 308.56 763.29 320.93 763.3 320.93 764.07 322.57 764.07 322.57 764.07 322.57 768.27 331.44 777.9 331.44 761.72 298.85 752.73 298.85"/>
  </g>
</svg>